<svg xmlns="http://www.w3.org/2000/svg" version="1.1" width="96" height="96" viewbox="0 0 96 96"><rect x="0" y="0" width="96" height="96" fill="#FFFFFF"></rect><g transform="translate(33.528, 53.424)"><path d="M11.81 0.53L11.81 0.53Q9.31 0.53 7.34-0.58L7.34-0.58Q6.82 1.54 6.19 4.08L6.19 4.08Q5.18 8.02 4.99 8.66 4.8 9.31 4.42 9.7L4.42 9.7Q3.65 10.37 2.78 10.37L2.78 10.37Q2.11 10.37 1.63 9.96 1.15 9.55 1.1 8.93L1.1 8.93Q1.1 8.45 4.63-5.57 8.16-19.58 8.3-19.87L8.3-19.87Q8.88-21.22 10.51-21.22L10.51-21.22Q11.14-21.17 11.59-20.81 12.05-20.45 12.05-19.82L12.05-19.82Q12.05-19.25 10.56-13.39 9.07-7.54 8.98-6.82L8.98-6.82Q8.88-6.29 8.88-5.14L8.88-5.14Q8.88-1.25 12.1-1.25L12.1-1.25Q12.91-1.25 13.78-1.54L13.78-1.54Q15.98-2.35 17.62-4.94L17.62-4.94 17.86-5.28 19.58-12.14Q21.31-18.96 21.5-19.39L21.5-19.39Q22.13-20.69 23.57-20.69L23.57-20.69Q24.24-20.69 24.72-20.33 25.2-19.97 25.2-19.3L25.2-19.3 21.55-4.03Q21.5-3.79 21.5-3.26L21.5-3.26Q21.5-1.25 22.85-1.25L22.85-1.25Q23.28-1.3 23.81-1.68L23.81-1.68Q24.82-2.64 25.78-6.29L25.78-6.29Q26.06-7.25 26.26-7.3L26.26-7.3Q26.35-7.34 26.74-7.34L26.74-7.34 26.93-7.34Q27.84-7.34 27.84-6.96L27.84-6.96Q27.84-6.77 27.7-6.19L27.7-6.19Q26.64-2.16 25.1-0.62L25.1-0.62Q24 0.48 22.42 0.48L22.42 0.48Q19.39 0.48 18.19-1.87L18.19-1.87Q17.95-2.35 17.95-2.45 17.95-2.54 17.47-2.06L17.47-2.06Q14.88 0.53 11.81 0.53Z" fill="#404040"></path></g></svg>